<?xml version="1.0" encoding="iso-8859-1"?>
<!-- Generator: Adobe Illustrator 16.0.0, SVG Export Plug-In . SVG Version: 6.00 Build 0)  -->
<!DOCTYPE svg PUBLIC "-//W3C//DTD SVG 1.1//EN" "http://www.w3.org/Graphics/SVG/1.1/DTD/svg11.dtd">
<svg xmlns="http://www.w3.org/2000/svg" xmlns:xlink="http://www.w3.org/1999/xlink" version="1.1" id="Capa_1" x="0px" y="0px" width="512px" height="512px" viewBox="0 0 31.386 31.387" style="enable-background:new 0 0 31.386 31.387;" xml:space="preserve">
<g>
	<g>
		<g>
			<path d="M6.181,24.328l9.246,4.109c0.17,0.076,0.362,0.076,0.531,0l9.247-4.109c0.235-0.105,0.389-0.339,0.389-0.598V13.21     c0-0.257-0.15-0.489-0.384-0.596l-9.247-4.186c-0.172-0.077-0.368-0.077-0.539,0l-9.247,4.186     c-0.233,0.106-0.384,0.339-0.384,0.596V23.73C5.794,23.989,5.945,24.223,6.181,24.328z M7.26,15.046l6.967,3.097v8.158     L7.26,23.202V15.046z" fill="#D80027"/>
		</g>
		<g>
			<path d="M26.488,25.624c-0.219-0.493-0.796-0.72-1.291-0.498l-9.504,4.211L6.19,25.126c-0.496-0.22-1.073,0.005-1.291,0.498     c-0.219,0.494,0.004,1.072,0.498,1.291l9.899,4.388c0.127,0.055,0.262,0.084,0.396,0.084c0.134,0,0.271-0.029,0.396-0.084     l9.899-4.388C26.484,26.697,26.707,26.119,26.488,25.624z" fill="#D80027"/>
		</g>
		<g>
			<path d="M14.938,7.75v0.361l0.284-0.128c0.298-0.135,0.645-0.135,0.942,0l0.284,0.129V7.75c1.797-0.353,3.157-1.94,3.157-3.838     C19.605,1.755,17.85,0,15.692,0c-2.156,0-3.911,1.755-3.911,3.912C11.782,5.81,13.141,7.397,14.938,7.75z M15.693,1.007     c1.603,0,2.905,1.303,2.905,2.905s-1.304,2.905-2.905,2.905c-1.601,0-2.904-1.303-2.904-2.905S14.093,1.007,15.693,1.007z" fill="#D80027"/>
		</g>
		<g>
			<path d="M15.486,4.331l2.41-0.419l-2.41-0.419c-0.047-0.008-0.097-0.008-0.146,0c-0.23,0.041-0.387,0.261-0.346,0.493     C15.034,4.217,15.255,4.372,15.486,4.331z" fill="#D80027"/>
		</g>
	</g>
</g>
<g>
</g>
<g>
</g>
<g>
</g>
<g>
</g>
<g>
</g>
<g>
</g>
<g>
</g>
<g>
</g>
<g>
</g>
<g>
</g>
<g>
</g>
<g>
</g>
<g>
</g>
<g>
</g>
<g>
</g>
</svg>
